<mxfile host="app.diagrams.net" modified="2023-03-15T09:19:56.333Z" agent="5.0 (Macintosh; Intel Mac OS X 10_15_7) AppleWebKit/537.36 (KHTML, like Gecko) Chrome/110.0.0.0 Safari/537.36" etag="ZZYBPklj6A5alcj5qSUw" version="20.7.4" type="github">
  <diagram id="8Ll88vAG64B_30g3c1Fw" name="第 1 页">
    <mxGraphModel dx="1434" dy="736" grid="1" gridSize="10" guides="1" tooltips="1" connect="1" arrows="1" fold="1" page="1" pageScale="1" pageWidth="1200" pageHeight="600" math="0" shadow="0">
      <root>
        <mxCell id="0" />
        <mxCell id="1" parent="0" />
        <mxCell id="mm5lNdN80OMC59J0B6N4-8" style="edgeStyle=none;curved=1;rounded=0;orthogonalLoop=1;jettySize=auto;html=1;entryX=0;entryY=0;entryDx=0;entryDy=0;fontSize=12;endArrow=open;startSize=14;endSize=14;sourcePerimeterSpacing=8;targetPerimeterSpacing=8;" parent="1" source="mm5lNdN80OMC59J0B6N4-1" target="mm5lNdN80OMC59J0B6N4-4" edge="1">
          <mxGeometry relative="1" as="geometry">
            <Array as="points">
              <mxPoint x="250" y="220" />
            </Array>
          </mxGeometry>
        </mxCell>
        <mxCell id="mm5lNdN80OMC59J0B6N4-1" value="iOS-Weekly" style="rounded=1;whiteSpace=wrap;html=1;fontSize=16;" parent="1" vertex="1">
          <mxGeometry x="110" y="180" width="100" height="40" as="geometry" />
        </mxCell>
        <mxCell id="mm5lNdN80OMC59J0B6N4-9" style="edgeStyle=none;curved=1;rounded=0;orthogonalLoop=1;jettySize=auto;html=1;entryX=-0.02;entryY=0.32;entryDx=0;entryDy=0;entryPerimeter=0;fontSize=12;endArrow=open;startSize=14;endSize=14;sourcePerimeterSpacing=8;targetPerimeterSpacing=8;" parent="1" source="mm5lNdN80OMC59J0B6N4-2" target="mm5lNdN80OMC59J0B6N4-4" edge="1">
          <mxGeometry relative="1" as="geometry" />
        </mxCell>
        <mxCell id="mm5lNdN80OMC59J0B6N4-2" value="android-tech" style="rounded=1;whiteSpace=wrap;html=1;fontSize=16;" parent="1" vertex="1">
          <mxGeometry x="110" y="230" width="100" height="40" as="geometry" />
        </mxCell>
        <mxCell id="mm5lNdN80OMC59J0B6N4-10" style="edgeStyle=none;curved=1;rounded=0;orthogonalLoop=1;jettySize=auto;html=1;entryX=0;entryY=0.5;entryDx=0;entryDy=0;fontSize=12;endArrow=open;startSize=14;endSize=14;sourcePerimeterSpacing=8;targetPerimeterSpacing=8;" parent="1" source="mm5lNdN80OMC59J0B6N4-3" target="mm5lNdN80OMC59J0B6N4-4" edge="1">
          <mxGeometry relative="1" as="geometry">
            <Array as="points">
              <mxPoint x="240" y="290" />
            </Array>
          </mxGeometry>
        </mxCell>
        <mxCell id="mm5lNdN80OMC59J0B6N4-3" value="flutter-web" style="rounded=1;whiteSpace=wrap;html=1;fontSize=16;" parent="1" vertex="1">
          <mxGeometry x="110" y="280" width="100" height="40" as="geometry" />
        </mxCell>
        <mxCell id="mm5lNdN80OMC59J0B6N4-18" value="" style="edgeStyle=none;curved=1;rounded=0;orthogonalLoop=1;jettySize=auto;html=1;fontSize=12;endArrow=open;sourcePerimeterSpacing=8;targetPerimeterSpacing=8;shape=flexArrow;" parent="1" source="mm5lNdN80OMC59J0B6N4-4" target="mm5lNdN80OMC59J0B6N4-12" edge="1">
          <mxGeometry relative="1" as="geometry" />
        </mxCell>
        <mxCell id="mm5lNdN80OMC59J0B6N4-4" value="CI" style="ellipse;whiteSpace=wrap;html=1;aspect=fixed;fontSize=16;" parent="1" vertex="1">
          <mxGeometry x="260" y="230" width="100" height="100" as="geometry" />
        </mxCell>
        <mxCell id="mm5lNdN80OMC59J0B6N4-11" style="edgeStyle=none;curved=1;rounded=0;orthogonalLoop=1;jettySize=auto;html=1;entryX=0;entryY=1;entryDx=0;entryDy=0;fontSize=12;endArrow=open;startSize=14;endSize=14;sourcePerimeterSpacing=8;targetPerimeterSpacing=8;" parent="1" source="mm5lNdN80OMC59J0B6N4-5" target="mm5lNdN80OMC59J0B6N4-4" edge="1">
          <mxGeometry relative="1" as="geometry">
            <Array as="points">
              <mxPoint x="250" y="340" />
            </Array>
          </mxGeometry>
        </mxCell>
        <mxCell id="mm5lNdN80OMC59J0B6N4-5" value="......" style="rounded=1;whiteSpace=wrap;html=1;fontSize=16;" parent="1" vertex="1">
          <mxGeometry x="110" y="330" width="100" height="40" as="geometry" />
        </mxCell>
        <mxCell id="mm5lNdN80OMC59J0B6N4-19" style="edgeStyle=none;curved=1;rounded=0;orthogonalLoop=1;jettySize=auto;html=1;entryX=0;entryY=0.25;entryDx=0;entryDy=0;fontSize=12;endArrow=open;sourcePerimeterSpacing=8;targetPerimeterSpacing=8;exitX=1;exitY=0;exitDx=0;exitDy=0;" parent="1" source="mm5lNdN80OMC59J0B6N4-12" target="mm5lNdN80OMC59J0B6N4-14" edge="1">
          <mxGeometry relative="1" as="geometry">
            <Array as="points">
              <mxPoint x="530" y="210" />
            </Array>
          </mxGeometry>
        </mxCell>
        <mxCell id="mm5lNdN80OMC59J0B6N4-20" style="edgeStyle=none;curved=1;rounded=0;orthogonalLoop=1;jettySize=auto;html=1;entryX=0;entryY=0.5;entryDx=0;entryDy=0;fontSize=12;endArrow=open;sourcePerimeterSpacing=8;targetPerimeterSpacing=8;exitX=1;exitY=0.25;exitDx=0;exitDy=0;" parent="1" source="mm5lNdN80OMC59J0B6N4-12" target="mm5lNdN80OMC59J0B6N4-15" edge="1">
          <mxGeometry relative="1" as="geometry" />
        </mxCell>
        <mxCell id="mm5lNdN80OMC59J0B6N4-21" style="edgeStyle=none;curved=1;rounded=0;orthogonalLoop=1;jettySize=auto;html=1;entryX=0;entryY=0.5;entryDx=0;entryDy=0;fontSize=12;endArrow=open;sourcePerimeterSpacing=8;targetPerimeterSpacing=8;exitX=1;exitY=0.75;exitDx=0;exitDy=0;" parent="1" source="mm5lNdN80OMC59J0B6N4-12" target="mm5lNdN80OMC59J0B6N4-16" edge="1">
          <mxGeometry relative="1" as="geometry">
            <mxPoint x="520" y="280" as="sourcePoint" />
          </mxGeometry>
        </mxCell>
        <mxCell id="mm5lNdN80OMC59J0B6N4-22" style="edgeStyle=none;curved=1;rounded=0;orthogonalLoop=1;jettySize=auto;html=1;entryX=0;entryY=0.5;entryDx=0;entryDy=0;fontSize=12;endArrow=open;sourcePerimeterSpacing=8;targetPerimeterSpacing=8;exitX=1;exitY=1;exitDx=0;exitDy=0;" parent="1" source="mm5lNdN80OMC59J0B6N4-12" target="mm5lNdN80OMC59J0B6N4-17" edge="1">
          <mxGeometry relative="1" as="geometry">
            <Array as="points">
              <mxPoint x="520" y="340" />
            </Array>
          </mxGeometry>
        </mxCell>
        <mxCell id="mm5lNdN80OMC59J0B6N4-12" value="每月自动整理" style="rounded=1;whiteSpace=wrap;html=1;fontSize=16;" parent="1" vertex="1">
          <mxGeometry x="410" y="250" width="110" height="60" as="geometry" />
        </mxCell>
        <mxCell id="mm5lNdN80OMC59J0B6N4-14" value="iOS系列" style="shape=parallelogram;perimeter=parallelogramPerimeter;whiteSpace=wrap;html=1;fixedSize=1;fontSize=16;" parent="1" vertex="1">
          <mxGeometry x="549" y="190" width="120" height="40" as="geometry" />
        </mxCell>
        <mxCell id="mm5lNdN80OMC59J0B6N4-15" value="android系列" style="shape=parallelogram;perimeter=parallelogramPerimeter;whiteSpace=wrap;html=1;fixedSize=1;fontSize=16;" parent="1" vertex="1">
          <mxGeometry x="549" y="240" width="120" height="40" as="geometry" />
        </mxCell>
        <mxCell id="mm5lNdN80OMC59J0B6N4-16" value="flutter系列" style="shape=parallelogram;perimeter=parallelogramPerimeter;whiteSpace=wrap;html=1;fixedSize=1;fontSize=16;" parent="1" vertex="1">
          <mxGeometry x="549" y="300" width="120" height="40" as="geometry" />
        </mxCell>
        <mxCell id="mm5lNdN80OMC59J0B6N4-17" value="其他" style="shape=parallelogram;perimeter=parallelogramPerimeter;whiteSpace=wrap;html=1;fixedSize=1;fontSize=16;" parent="1" vertex="1">
          <mxGeometry x="549" y="360" width="120" height="35" as="geometry" />
        </mxCell>
        <mxCell id="mm5lNdN80OMC59J0B6N4-23" value="" style="endArrow=none;html=1;rounded=0;fontSize=12;sourcePerimeterSpacing=8;targetPerimeterSpacing=8;curved=1;" parent="1" edge="1">
          <mxGeometry width="50" height="50" relative="1" as="geometry">
            <mxPoint x="690" y="430" as="sourcePoint" />
            <mxPoint x="690" y="140" as="targetPoint" />
          </mxGeometry>
        </mxCell>
        <mxCell id="mm5lNdN80OMC59J0B6N4-24" value="季度分享｜PL｜产品、项目经理" style="rounded=1;whiteSpace=wrap;html=1;fontSize=16;" parent="1" vertex="1">
          <mxGeometry x="710" y="250" width="180" height="60" as="geometry" />
        </mxCell>
        <mxCell id="wplj45lKmrnIDv5z1rPm-1" value="" style="endArrow=none;html=1;rounded=0;fontSize=12;sourcePerimeterSpacing=8;targetPerimeterSpacing=8;curved=1;" edge="1" parent="1">
          <mxGeometry width="50" height="50" relative="1" as="geometry">
            <mxPoint x="910" y="430" as="sourcePoint" />
            <mxPoint x="910" y="140" as="targetPoint" />
          </mxGeometry>
        </mxCell>
        <mxCell id="wplj45lKmrnIDv5z1rPm-2" value="产品体验提升" style="rounded=1;whiteSpace=wrap;html=1;fontSize=16;" vertex="1" parent="1">
          <mxGeometry x="940" y="160" width="120" height="30" as="geometry" />
        </mxCell>
        <mxCell id="wplj45lKmrnIDv5z1rPm-3" value="架构优化" style="rounded=1;whiteSpace=wrap;html=1;fontSize=16;" vertex="1" parent="1">
          <mxGeometry x="940" y="200" width="120" height="30" as="geometry" />
        </mxCell>
        <mxCell id="wplj45lKmrnIDv5z1rPm-4" value="性能优化" style="rounded=1;whiteSpace=wrap;html=1;fontSize=16;" vertex="1" parent="1">
          <mxGeometry x="940" y="240" width="120" height="30" as="geometry" />
        </mxCell>
        <mxCell id="wplj45lKmrnIDv5z1rPm-5" value="分享、讨论" style="text;html=1;strokeColor=none;fillColor=none;align=center;verticalAlign=middle;whiteSpace=wrap;rounded=0;fontSize=13;" vertex="1" parent="1">
          <mxGeometry x="680" y="395" width="90" height="30" as="geometry" />
        </mxCell>
        <mxCell id="wplj45lKmrnIDv5z1rPm-6" value="提升" style="text;html=1;strokeColor=none;fillColor=none;align=center;verticalAlign=middle;whiteSpace=wrap;rounded=0;fontSize=13;" vertex="1" parent="1">
          <mxGeometry x="880" y="395" width="90" height="30" as="geometry" />
        </mxCell>
        <mxCell id="wplj45lKmrnIDv5z1rPm-7" value="先进性" style="rounded=1;whiteSpace=wrap;html=1;fontSize=16;" vertex="1" parent="1">
          <mxGeometry x="940" y="280" width="120" height="30" as="geometry" />
        </mxCell>
        <mxCell id="wplj45lKmrnIDv5z1rPm-8" value="大厂经验教训" style="rounded=1;whiteSpace=wrap;html=1;fontSize=16;" vertex="1" parent="1">
          <mxGeometry x="940" y="320" width="120" height="30" as="geometry" />
        </mxCell>
        <mxCell id="wplj45lKmrnIDv5z1rPm-9" value="......" style="rounded=1;whiteSpace=wrap;html=1;fontSize=16;" vertex="1" parent="1">
          <mxGeometry x="940" y="360" width="120" height="30" as="geometry" />
        </mxCell>
      </root>
    </mxGraphModel>
  </diagram>
</mxfile>
